# xmcd CD database file
#
# Track frame offsets:
#	150
#	68240
#	97577
#	133247
#	186472
#	242385
#	277650
#	311032
#
# Disc length: 4377 seconds
#
# Revision: 0
# Processed by: cddbd v1.5.2PL0 Copyright (c) Steve Scherf et al.
# Submitted via: CDex 1.70beta2
#
DISCID=67111708
DTITLE=渋谷毅オーケストラ - ホームグラウンド・アケタLive
DYEAR=1999
DGENRE=Jazz
TTITLE0=Great Type
TTITLE1=Ballad
TTITLE2=Strange Wood Blues
TTITLE3=Waltz For AKETA
TTITLE4=What MASA Is ... She Is Out To Lunch
TTITLE5=Cha Ra Ra
TTITLE6=Soon I Will Be Done With The Troubles Of This World
TTITLE7=Lotus Blossom
EXTD=YEAR: 1999
EXTT0=
EXTT1=
EXTT2=
EXTT3=
EXTT4=
EXTT5=
EXTT6=
EXTT7=
PLAYORDER=
